<svg width="167" height="35" viewBox="0 0 167 35" fill="none" xmlns="http://www.w3.org/2000/svg">
<path d="M83.3398 12.4531H82.7788V15.672H83.3398V12.4531Z" fill="#6E5D56"/>
<path d="M86.1442 12.9517C86.0694 12.7602 85.9198 12.6452 85.7702 12.5302C85.6206 12.4536 85.4336 12.377 85.2466 12.377C85.0596 12.377 84.91 12.4153 84.723 12.5302C84.5734 12.6069 84.4612 12.7602 84.349 12.9134C84.2742 13.0667 84.2368 13.2583 84.2368 13.4499C84.2368 13.7181 84.3116 13.9864 84.4986 14.1397C84.6482 14.3313 84.8726 14.4079 85.1344 14.4079C85.2466 14.4079 85.3962 14.3696 85.5084 14.3313C85.4336 14.5229 85.284 14.7911 85.097 15.0593C84.91 15.3276 84.723 15.5575 84.536 15.7108H85.2092C85.5458 15.4042 85.8076 15.021 85.9946 14.6378C86.1816 14.2546 86.2938 13.8714 86.2938 13.5265C86.2564 13.3349 86.219 13.105 86.1442 12.9517ZM85.5458 13.7948C85.471 13.8714 85.3588 13.9481 85.2466 13.9481C85.097 13.9481 85.0222 13.9097 84.9474 13.7948C84.8726 13.7181 84.8352 13.6032 84.8352 13.4499C84.8352 13.2966 84.8726 13.1817 84.9474 13.105C85.0222 13.0284 85.1344 12.9517 85.2466 12.9517C85.3588 12.9517 85.471 12.9901 85.5832 13.105C85.6954 13.22 85.6954 13.3349 85.6954 13.4882C85.6954 13.5649 85.658 13.6798 85.5458 13.7948Z" fill="#6E5D56"/>
<path d="M88.6134 12.9517C88.5386 12.7602 88.389 12.6452 88.2394 12.5302C88.0898 12.4536 87.9028 12.377 87.7158 12.377C87.5288 12.377 87.3792 12.4153 87.1923 12.5302C87.0427 12.6069 86.9305 12.7602 86.8183 12.9134C86.7435 13.0667 86.7061 13.2583 86.7061 13.4499C86.7061 13.7181 86.7809 13.9864 86.9679 14.1397C87.1174 14.3313 87.3418 14.4079 87.6036 14.4079C87.7158 14.4079 87.8654 14.3696 87.9776 14.3313C87.9028 14.5229 87.7532 14.7911 87.5662 15.0593C87.3792 15.3276 87.1923 15.5575 87.0053 15.7108H87.6784C88.015 15.4042 88.2768 15.021 88.4638 14.6378C88.6508 14.2546 88.763 13.8714 88.763 13.5265C88.763 13.3349 88.7256 13.105 88.6134 12.9517ZM88.0524 13.7948C87.9776 13.8714 87.8654 13.9481 87.7532 13.9481C87.6036 13.9481 87.5288 13.9097 87.454 13.7948C87.3792 13.7181 87.3418 13.6032 87.3418 13.4499C87.3418 13.2966 87.3792 13.1817 87.454 13.105C87.5288 13.0284 87.641 12.9517 87.7532 12.9517C87.8654 12.9517 87.9776 12.9901 88.0898 13.105C88.202 13.22 88.202 13.3349 88.202 13.4882C88.1646 13.5649 88.1272 13.6798 88.0524 13.7948Z" fill="#6E5D56"/>
<path d="M90.9694 12.4536V12.9901H89.9596V13.6798H90.0344H90.0718C90.2588 13.6798 90.4458 13.7181 90.5954 13.7948C90.745 13.8714 90.8572 13.9864 90.9694 14.1397C91.0442 14.2929 91.119 14.4845 91.119 14.6761C91.119 14.9827 91.0068 15.2126 90.8198 15.4042C90.6328 15.5958 90.371 15.6725 90.0344 15.6725C89.7352 15.6725 89.4734 15.5958 89.249 15.4809V14.9444C89.4734 15.0977 89.6978 15.1743 89.9222 15.1743C90.1092 15.1743 90.2214 15.136 90.3336 15.021C90.4458 14.9061 90.5206 14.7911 90.5206 14.6378C90.5206 14.4845 90.4458 14.3313 90.3336 14.2546C90.2214 14.178 90.0344 14.1013 89.81 14.1013C89.6978 14.1013 89.5856 14.1013 89.4734 14.1397V12.377H90.9694V12.4536Z" fill="#6E5D56"/>
<path d="M94.4471 10.921C94.4471 10.6528 94.4845 10.4229 94.5219 10.1929L93.0259 10.0013V9.19663C93.0259 8.89007 92.8015 8.66016 92.5023 8.66016H92.2031C92.0909 8.66016 92.0161 8.7368 92.0161 8.85175V8.89007C92.0161 9.00503 92.0909 9.08167 92.2031 9.08167H92.2405C92.3153 9.08167 92.3527 9.11999 92.3527 9.19663C92.3527 9.27327 92.3153 9.31159 92.2405 9.31159H92.2031C92.0909 9.31159 92.0161 9.38823 92.0161 9.50319V9.54151C92.0161 9.65647 92.0909 9.73311 92.2031 9.73311H92.2405C92.3153 9.73311 92.3527 9.77143 92.3527 9.84807C92.3527 9.92471 92.3153 9.96303 92.2405 9.96303H92.2031C92.0909 9.96303 92.0161 10.0397 92.0161 10.1546V10.5378C92.0161 10.5761 92.0535 10.6528 92.0909 10.6911L94.4845 11.6874C94.4845 11.4192 94.4471 11.1893 94.4471 10.921Z" fill="#6E5D56"/>
<path d="M100.88 12.2246C100.806 12.3396 100.731 12.4162 100.619 12.4928C100.731 13.0293 100.993 13.7957 101.292 14.064L100.843 14.6387H99.3844C99.0852 14.6387 98.8608 14.8687 98.8608 15.1752V15.4818C98.8608 15.5967 98.9356 15.6734 99.0478 15.6734H99.0852C99.1974 15.6734 99.2722 15.5967 99.2722 15.4818V15.4435C99.2722 15.3668 99.3096 15.3285 99.3844 15.3285C99.4592 15.3285 99.4966 15.3668 99.4966 15.4435V15.4818C99.4966 15.5967 99.5714 15.6734 99.6836 15.6734H99.721C99.8332 15.6734 99.908 15.5967 99.908 15.4818V15.4435C99.908 15.3668 99.9454 15.3285 100.02 15.3285C100.095 15.3285 100.132 15.3668 100.132 15.4435V15.4818C100.132 15.5967 100.207 15.6734 100.319 15.6734H101.18C101.217 15.6734 101.254 15.6734 101.292 15.6351L102.489 14.4471V14.2939C102.414 14.2172 102.376 13.9873 102.339 13.7574C101.703 13.2976 101.18 12.6844 100.88 12.2246Z" fill="#6E5D56"/>
<path d="M109.893 12.9523C109.556 12.4924 109.743 12.1092 110.229 12.2242C109.743 11.8027 108.92 11.9176 108.584 12.2625C108.21 12.6074 108.172 13.1056 108.359 13.5271C108.696 14.3318 109.444 14.2551 109.743 14.3318C110.042 14.4084 110.155 14.6767 110.155 14.6767C110.454 13.9103 110.08 13.2205 109.893 12.9523Z" fill="#6E5D56"/>
<path d="M107.762 14.4081C106.789 13.3352 106.191 9.31161 103.386 9.50321C103.274 9.38825 103.124 9.27329 102.937 9.19666C101.628 8.73682 100.955 9.80977 99.2719 9.2733C99.2719 9.2733 99.6085 7.85547 98.8231 6.5526C98.4865 6.01612 97.8881 5.36468 97.0653 5.13477C97.4767 5.47964 97.5141 6.28436 97.5141 6.28436C97.4393 5.74788 96.4295 5.13477 95.9059 5.2114C95.4571 5.24972 95.0831 5.67124 95.0457 6.09276L94.6343 6.361C94.2603 6.70587 93.5871 7.35731 93.5871 7.35731C93.5871 7.35731 93.4001 7.74051 93.9985 8.1237C93.9985 8.1237 93.8489 8.66018 94.3725 8.77514L95.5319 8.39194C95.5319 8.43026 95.5319 8.5069 95.5319 8.54522C95.5319 8.8901 95.4571 9.19666 95.3075 9.50321C95.0083 9.92473 94.8587 10.4229 94.8587 10.9594C94.8587 11.4958 95.0083 11.994 95.3075 12.3772L95.5693 11.879C95.6067 11.994 95.6815 12.109 95.7937 12.2239L94.9335 14.6381H93.9611C93.6619 14.6381 93.4375 14.868 93.4375 15.1745V15.4811C93.4375 15.596 93.5123 15.6727 93.6245 15.6727H93.6619C93.7741 15.6727 93.8489 15.596 93.8489 15.4811V15.4428C93.8489 15.3661 93.8863 15.3278 93.9611 15.3278C94.0359 15.3278 94.0733 15.3661 94.0733 15.4428V15.4811C94.0733 15.596 94.1481 15.6727 94.2603 15.6727H94.2977C94.4099 15.6727 94.4847 15.596 94.4847 15.4811V15.4428C94.4847 15.3661 94.5221 15.3278 94.5969 15.3278C94.6717 15.3278 94.7091 15.3661 94.7091 15.4428V15.4811C94.7091 15.596 94.7839 15.6727 94.8961 15.6727H95.2701C95.3449 15.6727 95.4571 15.5577 95.4571 15.5577L97.2149 13.1053C97.5141 13.2202 97.6263 13.1819 98.0003 13.1819C99.9077 13.1819 100.917 11.4575 100.917 11.4575C100.917 11.4575 101.965 13.3735 103.236 13.7184C104.246 13.9866 104.919 14.1782 104.919 14.1782V14.6764H103.947C103.648 14.6764 103.423 14.9063 103.423 15.2129V15.5194C103.423 15.6344 103.498 15.711 103.61 15.711H103.648C103.76 15.711 103.835 15.6344 103.835 15.5194V15.4811C103.835 15.4045 103.872 15.3661 103.947 15.3661C104.022 15.3661 104.059 15.4045 104.059 15.4811V15.5194C104.059 15.6344 104.134 15.711 104.246 15.711H104.283C104.396 15.711 104.47 15.6344 104.47 15.5194V15.4811C104.47 15.4045 104.508 15.3661 104.583 15.3661C104.657 15.3661 104.695 15.4045 104.695 15.4811V15.5194C104.695 15.6344 104.77 15.711 104.882 15.711H105.742C105.854 15.711 105.929 15.6344 105.929 15.5194V13.6417C105.929 13.4885 105.817 13.3735 105.667 13.3352L104.62 12.9903C104.62 12.9903 104.545 11.6108 104.134 10.6528C105.63 10.5762 106.378 13.8333 107.313 14.8297C108.51 16.1325 109.968 15.3278 110.043 14.9446C109.37 15.3661 108.36 15.0979 107.762 14.4081ZM95.0831 7.12739L94.9335 6.78251H95.9807L95.0831 7.12739ZM95.8685 11.7641C95.8685 11.6874 95.8685 11.2276 95.7189 10.8444C95.3823 10.1163 95.7563 9.69481 95.8685 9.54153C95.8311 9.57985 95.8685 10.078 96.0181 10.4612C96.3547 11.1893 95.9807 11.6108 95.8685 11.7641ZM97.1401 8.46858C96.8409 9.12002 96.8409 9.96305 96.8409 10.078C96.6165 9.80977 95.9807 9.04338 96.5417 7.74051C96.8409 7.08907 96.8409 6.24604 96.8409 6.13108C97.0653 6.39932 97.7011 7.12739 97.1401 8.46858ZM98.3369 9.38825C98.0377 10.0397 98.1499 10.8827 98.1499 10.9977C97.9255 10.7294 97.3645 10.078 97.9629 8.73682C98.2621 8.08538 98.1873 7.16571 98.1499 7.05075C98.4117 7.35731 98.9353 8.08538 98.3369 9.38825Z" fill="#6E5D56"/>
<path d="M79.2628 10.921C79.2628 10.6528 79.2254 10.4229 79.188 10.1929L80.684 10.0013V9.19663C80.684 8.89007 80.9084 8.66016 81.2076 8.66016H81.5068C81.619 8.66016 81.6938 8.7368 81.6938 8.85175V8.89007C81.6938 9.00503 81.619 9.08167 81.5068 9.08167H81.4694C81.3946 9.08167 81.3572 9.11999 81.3572 9.19663C81.3572 9.27327 81.3946 9.31159 81.4694 9.31159H81.5068C81.619 9.31159 81.6938 9.38823 81.6938 9.50319V9.54151C81.6938 9.65647 81.619 9.73311 81.5068 9.73311H81.4694C81.3946 9.73311 81.3572 9.77143 81.3572 9.84807C81.3572 9.92471 81.3946 9.96303 81.4694 9.96303H81.5068C81.619 9.96303 81.6938 10.0397 81.6938 10.1546V10.5378C81.6938 10.5761 81.6564 10.6528 81.619 10.6911L79.2254 11.6874C79.2254 11.4192 79.2628 11.1893 79.2628 10.921Z" fill="#6E5D56"/>
<path d="M72.868 12.2246C72.9802 12.3396 73.0176 12.4162 73.1298 12.4928C73.0176 13.0293 72.7558 13.7957 72.4566 14.064L72.9054 14.6387H74.3639C74.6631 14.6387 74.8875 14.8687 74.8875 15.1752V15.4818C74.8875 15.5967 74.8127 15.6734 74.7005 15.6734H74.6631C74.5509 15.6734 74.4761 15.5967 74.4761 15.4818V15.4435C74.4761 15.3668 74.4387 15.3285 74.3639 15.3285C74.2891 15.3285 74.2517 15.3668 74.2517 15.4435V15.4818C74.2517 15.5967 74.1769 15.6734 74.0647 15.6734H74.0273C73.9151 15.6734 73.8403 15.5967 73.8403 15.4818V15.4435C73.8403 15.3668 73.8029 15.3285 73.7281 15.3285C73.6534 15.3285 73.6159 15.3668 73.6159 15.4435V15.4818C73.6159 15.5967 73.5411 15.6734 73.429 15.6734H72.5688C72.5314 15.6734 72.494 15.6734 72.4566 15.6351L71.2598 14.4471V14.2939C71.3346 14.2172 71.372 13.9873 71.4094 13.7574C72.0452 13.2976 72.5314 12.6844 72.868 12.2246Z" fill="#6E5D56"/>
<path d="M63.8544 12.9523C64.191 12.4924 64.004 12.1092 63.5178 12.2242C64.004 11.8027 64.8268 11.9176 65.1634 12.2625C65.5374 12.6074 65.5748 13.1056 65.3878 13.5271C65.0512 14.3318 64.3032 14.2551 64.004 14.3318C63.6674 14.4084 63.5926 14.6767 63.5926 14.6767C63.256 13.9103 63.6674 13.2205 63.8544 12.9523Z" fill="#6E5D56"/>
<path d="M79.7865 14.6752H78.8141L77.9539 12.261C78.0287 12.1461 78.1035 12.0311 78.1783 11.9161L78.4401 12.4143C78.7019 11.9928 78.8889 11.4946 78.8889 10.9965C78.8889 10.46 78.7393 9.96184 78.4401 9.54032C78.2905 9.27209 78.2157 8.96553 78.2157 8.58233C78.2157 8.54401 78.2157 8.46737 78.2157 8.42905L79.3751 8.81225C79.8613 8.69729 79.7491 8.16081 79.7491 8.16081C80.3475 7.81594 80.1605 7.39442 80.1605 7.39442C80.1605 7.39442 79.4873 6.74298 79.1133 6.39811L78.7019 6.12987C78.6645 5.70835 78.2905 5.28683 77.8417 5.24851C77.3181 5.21019 76.3457 5.82331 76.2335 6.32147C76.2335 6.32147 76.2335 5.55507 76.6823 5.17188C75.8969 5.40179 75.2985 6.05323 74.9245 6.5897C74.1391 7.85426 74.4757 9.31041 74.4757 9.31041C72.7927 9.80856 72.1569 8.77393 70.8105 9.23377C70.6235 9.31041 70.4739 9.42537 70.3617 9.54032C67.5568 9.38705 66.9958 13.3723 65.986 14.4453C65.3876 15.135 64.3778 15.4032 63.7046 14.9051C64.0038 15.135 65.238 16.093 66.4348 14.7901C67.3324 13.7938 68.1178 10.5366 69.6137 10.6133C69.2023 11.533 69.1275 12.9508 69.1275 12.9508L68.0804 13.2957C67.9308 13.334 67.8186 13.4489 67.8186 13.6022V15.4799C67.8186 15.5948 67.8934 15.6715 68.0056 15.6715H68.8657C68.9779 15.6715 69.0527 15.5948 69.0527 15.4799V15.4416C69.0527 15.3649 69.0901 15.3266 69.1649 15.3266C69.2397 15.3266 69.2771 15.3649 69.2771 15.4416V15.4799C69.2771 15.5948 69.3519 15.6715 69.4641 15.6715H69.5015C69.6137 15.6715 69.6885 15.5948 69.6885 15.4799V15.4416C69.6885 15.3649 69.7259 15.3266 69.8007 15.3266C69.8755 15.3266 69.9129 15.3649 69.9129 15.4416V15.4799C69.9129 15.5948 69.9877 15.6715 70.0999 15.6715H70.1373C70.2495 15.6715 70.3243 15.5948 70.3243 15.4799V15.1733C70.3243 14.8668 70.0999 14.6368 69.8007 14.6368H68.8283V14.1387C68.8283 14.1387 69.5389 13.9088 70.5113 13.6789C71.7829 13.334 72.8301 11.418 72.8301 11.418C72.8301 11.418 73.8399 13.1424 75.7473 13.1424C76.0839 13.1424 76.2335 13.1424 76.5327 13.0657L78.2905 15.5182C78.2905 15.5182 78.3653 15.6332 78.4775 15.6332H78.8515C78.9637 15.6332 79.0385 15.5565 79.0385 15.4416V15.4032C79.0385 15.3266 79.0759 15.2883 79.1507 15.2883C79.2255 15.2883 79.2629 15.3266 79.2629 15.4032V15.4416C79.2629 15.5565 79.3377 15.6332 79.4499 15.6332H79.4873C79.5995 15.6332 79.6743 15.5565 79.6743 15.4416V15.4032C79.6743 15.3266 79.7117 15.2883 79.7865 15.2883C79.8613 15.2883 79.8987 15.3266 79.8987 15.4032V15.4416C79.8987 15.5565 79.9735 15.6332 80.0857 15.6332H80.1231C80.2353 15.6332 80.3101 15.5565 80.3101 15.4416V15.135C80.3101 14.9051 80.0483 14.6752 79.7865 14.6752ZM75.5603 10.9965C75.5603 10.8815 75.6725 10.0768 75.3733 9.38704C74.8123 8.08417 75.3359 7.3561 75.5603 7.04954C75.4855 7.12618 75.4855 8.08417 75.7473 8.73561C76.3457 10.0768 75.7847 10.7282 75.5603 10.9965ZM78.7767 6.7813L78.6271 7.12618L77.7295 6.7813H78.7767ZM76.8693 10.0768C76.8693 9.96184 76.8693 9.15713 76.5701 8.46737C76.0091 7.1645 76.6449 6.43643 76.8693 6.12987C76.7945 6.20651 76.8693 7.04954 77.1685 7.7393C77.7669 9.04217 77.0937 9.77024 76.8693 10.0768ZM77.6921 10.46C77.8417 10.0768 77.8791 9.61696 77.8417 9.54032C77.9539 9.6936 78.3279 10.1151 77.9913 10.8432C77.8417 11.2264 77.8043 11.6862 77.8417 11.7629C77.7295 11.6096 77.3555 11.1881 77.6921 10.46Z" fill="#6E5D56"/>
<path d="M88.052 1.45568C88.052 0.727607 87.5658 0.152811 86.9674 0.0761719C86.6308 0.0761719 86.4064 0.38273 86.4812 0.650968C86.556 0.880886 86.7056 1.03417 87.0422 1.22576C87.4162 1.45568 87.865 1.6856 87.865 2.22208C87.9398 2.03048 88.052 1.76224 88.052 1.45568Z" fill="#6E5D56"/>
<path d="M85.6958 1.45585C85.6958 2.18392 86.182 2.75872 86.7804 2.83536C87.117 2.83536 87.3414 2.5288 87.2666 2.26056C87.1918 2.03064 87.0422 1.87736 86.7056 1.68577C86.3316 1.45585 85.8828 1.22593 85.8828 0.689453C85.7706 0.842732 85.6958 1.14929 85.6958 1.45585Z" fill="#6E5D56"/>
<path fill-rule="evenodd" clip-rule="evenodd" d="M86.8556 3.37109H86.9304H87.1548C87.3418 3.37109 87.6783 3.37109 88.0149 3.48605C88.1192 3.52878 88.2235 3.57151 88.3277 3.62752C88.3896 3.61905 88.4601 3.61009 88.5388 3.60113C88.8754 3.56281 89.3616 3.52449 89.96 3.56281C90.2592 3.56281 90.5958 3.60113 90.9324 3.71609C91.269 3.79273 91.643 3.98433 91.9422 4.32921C92.204 4.67408 92.3536 5.13392 92.391 5.55544C92.4284 6.01527 92.391 6.43679 92.204 7.04991C92.0918 7.47142 91.8674 7.85462 91.6056 8.1995L91.1568 8.65934C91.1267 8.67986 91.0994 8.69764 91.074 8.71414L91.0739 8.71416C91.0045 8.75926 90.9497 8.79483 90.895 8.85093C90.8948 8.85112 90.8946 8.85131 90.8944 8.8515V10.5096C90.7158 10.39 89.8361 9.92423 86.9675 9.92423C83.6763 9.92423 82.7413 10.5373 82.7413 10.5373V8.78569C82.7094 8.76153 82.6756 8.73953 82.6372 8.71462L82.6372 8.7146L82.6371 8.71456C82.6117 8.69807 82.5844 8.68031 82.5544 8.65979L82.1056 8.19996C81.8438 7.85508 81.6194 7.47188 81.5072 7.05036C81.3202 6.43725 81.2828 6.01573 81.3202 5.55589C81.3576 5.13438 81.5072 4.67454 81.769 4.32966C82.0682 3.98479 82.4422 3.79319 82.7788 3.71655C83.1153 3.60159 83.4519 3.56327 83.7511 3.56327C84.3495 3.52495 84.8357 3.56327 85.1723 3.60159C85.2381 3.60908 85.2982 3.61657 85.3523 3.62378C85.4543 3.5696 85.5562 3.52782 85.6581 3.48605C86.0321 3.37109 86.3313 3.37109 86.5183 3.37109H86.7427H86.8175V3.71597H86.7801C86.7427 3.71597 86.6679 3.71597 86.5557 3.75429C86.5237 3.76085 86.4895 3.76741 86.4533 3.77435L86.4533 3.77435C86.278 3.80797 86.0557 3.85061 85.8077 3.94589C85.5459 4.06085 85.2841 4.29077 85.2093 4.63564C85.1506 4.8161 85.1226 5.01754 85.12 5.22899C85.715 5.1408 86.334 5.09552 86.9678 5.09552C87.5044 5.09552 88.0297 5.12761 88.538 5.1902C88.5282 4.99291 88.5005 4.80503 88.4637 4.63564C88.3515 4.29077 88.1271 4.06085 87.8653 3.94589C87.6553 3.85364 87.4211 3.81074 87.2402 3.77759C87.1956 3.76943 87.1543 3.76186 87.1174 3.75429C87.0052 3.75429 86.9304 3.75429 86.893 3.71597H86.8549H86.8182V3.37109H86.8556ZM85.2499 8.27648H84.5664C84.104 8.19562 83.7137 8.11051 83.5641 8.04668C83.1527 7.85508 82.7787 7.58684 82.6666 7.47188C82.4422 7.24203 82.2553 6.93559 82.1431 6.62912C82.8055 6.26327 83.5828 5.9792 84.4246 5.78975C84.4241 5.82674 84.4239 5.86357 84.4239 5.9002C84.4239 6.43667 84.5361 6.93483 84.7231 7.39467C84.8591 7.72916 85.0347 8.0231 85.2499 8.27648ZM89.1421 8.27648H88.4231C88.6383 8.0231 88.8139 7.72916 88.9499 7.39467C89.1369 6.93483 89.2491 6.39835 89.2491 5.9002C89.2531 5.84798 89.2557 5.79534 89.2572 5.74242C90.1222 5.9152 90.9214 6.18307 91.6114 6.53117C91.5982 6.56397 91.5838 6.59639 91.5682 6.62839C91.456 6.93495 91.269 7.24151 91.0446 7.47142C90.9324 7.58638 90.5584 7.85462 90.147 8.04622C89.9972 8.11018 89.6057 8.19548 89.1421 8.27648ZM90.8944 10.5096V10.5373H90.9318C90.9318 10.5373 90.9207 10.5272 90.8944 10.5096ZM84.6483 4.40573C84.529 4.69916 84.4706 5.02381 84.4439 5.34979C83.5532 5.53697 82.7285 5.82487 82.0042 6.20469C81.9677 6.01845 81.956 5.82549 81.956 5.63253C81.956 5.28766 82.0308 4.9811 82.2178 4.75118C82.4048 4.52126 82.6666 4.36798 82.9284 4.25302L82.9284 4.25302C83.2276 4.17638 83.5267 4.09974 83.7885 4.06142C84.2321 4.00083 84.6055 3.98814 84.9088 3.98549C84.8067 4.11229 84.7199 4.25901 84.6483 4.40573ZM86.9304 5.51703C86.3231 5.51703 85.7234 5.56364 85.1458 5.65315C85.1531 5.70983 85.1618 5.76669 85.1719 5.82356C85.2467 6.24507 85.3589 6.62827 85.5459 6.97315C85.7329 7.31803 85.9573 7.54794 86.1443 7.70122C86.3687 7.8545 86.5557 7.89282 86.6679 7.89282H86.8175H86.8182H86.8549H86.8556H87.0052C87.1174 7.89282 87.3044 7.81618 87.5287 7.70122C87.7531 7.54794 87.9775 7.31803 88.1271 6.97315C88.3141 6.62827 88.4263 6.24507 88.5011 5.82356C88.5131 5.75615 88.5222 5.68873 88.5287 5.62164C88.011 5.55285 87.4755 5.51703 86.9304 5.51703ZM91.7552 5.63208C91.7552 5.78704 91.7476 5.942 91.7257 6.09349C90.9866 5.73399 90.1468 5.46548 89.2408 5.29806C89.2098 4.98954 89.1378 4.68364 89.0247 4.40573C88.9549 4.23882 88.8706 4.10159 88.7719 3.9848C89.0805 3.98688 89.4641 3.99833 89.9226 4.06097C90.1844 4.09929 90.4836 4.17593 90.7828 4.25257C91.0446 4.36753 91.3064 4.5208 91.4934 4.75072C91.6804 4.98064 91.7552 5.2872 91.7552 5.63208Z" fill="#6E5D56"/>
<path d="M8.65366 29.8441C8.49492 28.9064 7.97902 28.2133 7.14565 27.724C6.43134 27.3163 5.63765 27.1125 4.80428 27.0717C4.32807 27.0309 3.89154 27.0717 3.41533 27.0717C3.37564 27.0717 3.37564 27.0717 3.33596 27.0717V26.3378C3.33596 25.604 3.33596 24.9109 3.33596 24.177C3.33596 24.0139 3.37564 23.9731 3.53438 23.9731C4.28838 23.9731 5.0027 23.9324 5.7567 24.0139C6.15355 24.0547 6.55039 24.1362 6.98692 24.177C7.22502 24.2177 7.46313 24.2993 7.70123 24.3401V22.4238H0.716797V22.9131C0.875534 22.9131 1.03427 22.9131 1.19301 22.9131C1.35175 22.9131 1.39143 22.9539 1.39143 23.1169V32.9835C1.39143 33.1466 1.35175 33.1873 1.19301 33.1873C1.03427 33.1873 0.875534 33.1873 0.716797 33.1873V33.7989C1.94701 33.7989 3.13754 33.7989 4.36775 33.7989C4.84396 33.7989 5.32018 33.7989 5.79639 33.7174C6.31228 33.6358 6.78849 33.4727 7.26471 33.2281C7.74092 32.9835 8.09808 32.6166 8.37587 32.1681C8.69334 31.4342 8.81239 30.6596 8.65366 29.8441ZM6.39165 31.4342C6.19323 31.7604 5.91544 31.9235 5.55828 32.0458C5.16144 32.2088 4.7646 32.2496 4.32807 32.2496C4.05028 32.2496 3.77249 32.2496 3.4947 32.2496C3.37564 32.2496 3.29628 32.2088 3.29628 32.0458C3.29628 30.9042 3.29628 29.7626 3.29628 28.621V28.5802C3.69312 28.5802 4.08996 28.5802 4.48681 28.5802C4.80428 28.5802 5.12175 28.6618 5.43923 28.7433C5.87576 28.9064 6.23291 29.151 6.47102 29.5995C6.62976 29.9257 6.66944 30.2926 6.62976 30.6596C6.62976 30.945 6.55039 31.2303 6.39165 31.4342Z" fill="#6E5D56"/>
<path d="M14.566 22.4648C14.685 22.4648 14.8041 22.5056 14.9231 22.5056C15.6374 22.5872 16.2724 22.7502 16.8676 23.158C17.3835 23.5249 17.7407 23.9734 17.9788 24.5849C18.1375 25.0742 18.2169 25.5227 18.1772 26.0527C18.1375 26.5827 18.0185 27.072 17.7407 27.5204C17.5026 27.8874 17.2248 28.2135 16.8676 28.4582C16.4708 28.7436 15.9946 28.9474 15.5184 29.0697C15.0818 29.1921 14.6056 29.2328 14.1691 29.2328C13.8913 29.2328 13.6135 29.2328 13.3357 29.2328V29.3144C13.3357 30.5783 13.3357 31.8422 13.3357 33.0653C13.3357 33.2284 13.3754 33.2691 13.5342 33.2691C13.7326 33.2691 13.931 33.2691 14.1294 33.2691V33.7992H10.6372V33.3099C10.7959 33.3099 10.9547 33.3099 11.1134 33.3099C11.2722 33.3099 11.3118 33.2691 11.3118 33.1061C11.3118 29.8036 11.3118 26.5012 11.3118 23.2395C11.3118 23.0764 11.2722 23.0356 11.1134 23.0356C10.9547 23.0356 10.7959 23.0356 10.6372 23.0356V22.5464H14.566V22.4648ZM13.3357 27.6835C13.6135 27.6835 13.8913 27.6835 14.2088 27.6835C14.5263 27.6835 14.8834 27.6428 15.1612 27.5204C15.5977 27.3166 15.9549 27.0312 16.1136 26.5419C16.2327 26.175 16.2327 25.8488 16.193 25.4819C16.1136 24.9926 15.8755 24.5849 15.4787 24.3403C15.1612 24.1365 14.7644 24.0549 14.4072 24.0141C14.1294 24.0141 13.8516 24.0141 13.5738 24.0141C13.3754 24.0141 13.3357 24.0549 13.3357 24.2588C13.3357 25.4004 13.3357 26.5012 13.3357 27.6428V27.6835Z" fill="#6E5D56"/>
<path d="M27.6612 22.4648C27.6612 26.0119 27.6612 29.559 27.6612 33.0653C27.6612 33.2284 27.7009 33.2691 27.8596 33.2691C28.0183 33.2691 28.1771 33.2691 28.3358 33.2691V33.7584H24.9627V33.2691C25.0023 33.2691 25.0023 33.2691 25.042 33.2691C25.2008 33.2691 25.3595 33.2691 25.4786 33.2691C25.5976 33.2691 25.6373 33.1876 25.6373 33.1061V33.0653C25.6373 30.8229 25.6373 28.6213 25.6373 26.3789V26.2973C25.5579 26.4604 25.5182 26.5827 25.4389 26.7458C24.4468 29.0697 23.415 31.4345 22.4229 33.7584C22.4229 33.7992 22.3832 33.8399 22.3435 33.8399C21.7482 33.8399 21.153 33.8399 20.518 33.8399H20.4783V33.7176V23.2395C20.4783 23.1987 20.4783 23.1987 20.4783 23.158C20.4783 22.9949 20.4387 22.9541 20.2799 22.9541C20.1212 22.9541 19.9624 22.9541 19.8037 22.9541V22.4648H23.0975V22.9541C22.9388 22.9541 22.78 22.9541 22.6213 22.9541C22.4626 22.9541 22.4229 22.9949 22.4229 23.158C22.4229 25.4004 22.4229 27.6428 22.4229 29.8852C22.4229 29.9259 22.4229 29.9259 22.4229 29.9667L25.677 22.4648H27.6612Z" fill="#6E5D56"/>
<path d="M38.0602 22.4646V24.3808C37.8221 24.3401 37.6237 24.2585 37.3856 24.2177C37.0284 24.1362 36.6316 24.0954 36.2744 24.0547C35.9173 24.0139 35.5204 24.0139 35.1633 24.0139C35.0045 24.0139 34.9648 24.0547 34.9648 24.2177C34.9648 27.1533 34.9648 30.1295 34.9648 33.065C34.9648 33.2281 35.0045 33.2689 35.1633 33.2689C35.322 33.2689 35.5204 33.2689 35.7188 33.2689V33.7581H32.2663V33.2689H32.3457C32.5044 33.2689 32.6632 33.2689 32.8219 33.2689C32.9409 33.2689 32.9806 33.2281 32.9806 33.1058V33.065C32.9806 30.1295 32.9806 27.194 32.9806 24.2585C32.9806 24.0547 32.9409 24.0139 32.7425 24.0139C32.4251 24.0139 32.0679 24.0139 31.7504 24.0139C31.4726 24.0139 31.1948 24.0547 30.917 24.177C30.5202 24.3401 30.3218 24.6255 30.3218 25.0332C30.3218 25.0739 30.3218 25.0739 30.3218 25.1147H29.8853V22.4238H38.0602V22.4646Z" fill="#6E5D56"/>
<path d="M47.5047 33.432C47.5047 33.3912 47.5047 33.3912 47.465 33.3912C47.2666 33.2281 47.1475 33.0243 47.0682 32.8204C46.7904 32.2904 46.592 31.7196 46.4332 31.1488C46.0761 29.9257 45.7189 28.7026 45.3618 27.4794C44.8855 25.8078 44.4093 24.1362 43.9331 22.4238H41.9489C41.5521 23.8508 41.1552 25.2778 40.7584 26.7048C40.4806 27.7648 40.1631 28.7841 39.8853 29.8441C39.6472 30.7003 39.3694 31.5565 39.0519 32.3719C38.9329 32.6573 38.8138 32.9427 38.5757 33.2281C38.536 33.3097 38.4567 33.3504 38.417 33.3912V33.7989H41.2743V33.3097C41.1155 33.3097 40.9171 33.3097 40.7584 33.3097C40.6393 33.3097 40.5599 33.2281 40.5599 33.1058C40.5599 33.0651 40.5599 33.0243 40.5996 33.0243C40.7981 32.2089 40.9965 31.4342 41.1949 30.6188C41.2346 30.4557 41.2743 30.3334 41.3139 30.2111H44.1712C44.4887 31.4342 44.8062 32.6573 45.084 33.8397H47.5841C47.5047 33.6766 47.5047 33.5543 47.5047 33.432ZM41.5917 28.7026C41.9489 27.3163 42.2664 25.9709 42.6235 24.5847H42.6632C43.0204 25.9301 43.3379 27.3163 43.695 28.7026H41.5917Z" fill="#6E5D56"/>
<path d="M48.6162 33.2689C48.7749 33.2689 48.9337 33.2689 49.1321 33.2689C49.2908 33.2689 49.3305 33.2281 49.3305 33.065C49.3305 32.0458 49.3305 31.0673 49.3305 30.048C49.3305 27.7648 49.3305 25.4409 49.3305 23.1577C49.3305 22.9539 49.2908 22.9131 49.0924 22.9131C48.9734 22.9131 48.8146 22.9131 48.6956 22.9131C48.6956 22.9131 48.6956 22.9131 48.6559 22.9131V22.4238H51.9497V22.9131C51.791 22.9131 51.6322 22.9131 51.4735 22.9131C51.3147 22.9131 51.2751 22.9539 51.2751 23.1169C51.2751 24.4216 51.2751 25.767 51.2751 27.0717V27.1533H54.4895V27.0717C54.4895 25.767 54.4895 24.4624 54.4895 23.1577C54.4895 22.9946 54.4498 22.9539 54.2911 22.9539C54.1323 22.9539 53.9736 22.9539 53.8545 22.9539V22.4646H57.1483V22.9539C56.9896 22.9539 56.8705 22.9539 56.7118 22.9539C56.5531 22.9539 56.5134 22.9946 56.5134 23.1577C56.5134 26.4601 56.5134 29.7626 56.5134 33.0243C56.5134 33.1873 56.5531 33.2689 56.7118 33.2689C56.8705 33.2689 57.0293 33.2689 57.188 33.2689V33.7989H53.8545V33.3097C53.8942 33.3097 53.9339 33.3097 53.9736 33.3097C54.0926 33.3097 54.2514 33.3097 54.3704 33.3097C54.4895 33.3097 54.5292 33.2281 54.5292 33.1466C54.5292 33.0243 54.5292 32.902 54.5292 32.7796V28.9064V28.8249H51.3147V28.9064C51.3147 30.3334 51.3147 31.7196 51.3147 33.1466C51.3147 33.3097 51.3544 33.3912 51.5132 33.3912C51.6719 33.3912 51.8306 33.3912 51.9894 33.3912V33.7989H48.6162V33.2689Z" fill="#6E5D56"/>
<path d="M63.101 22.1792C63.2201 22.1792 63.2994 22.22 63.4185 22.22C63.9741 22.2607 64.5297 22.3423 65.0852 22.4238C65.1249 22.4238 65.1249 22.4238 65.1646 22.4238C65.0852 23.28 64.9662 24.177 64.8868 25.0332H64.4503C64.4106 24.9108 64.4106 24.7478 64.3312 24.6255C64.1725 24.1362 63.8153 23.8508 63.3391 23.7693C62.7835 23.647 62.2677 23.7285 61.7914 24.0954C61.4343 24.3401 61.2359 24.707 61.0771 25.1147C60.9184 25.5224 60.7993 25.9709 60.72 26.4194C60.6406 27.0717 60.6009 27.724 60.6009 28.3764C60.6009 29.1103 60.6803 29.8441 60.8787 30.578C61.0374 31.1488 61.2755 31.638 61.7121 32.005C62.0295 32.2904 62.4264 32.4535 62.8629 32.4942C63.6169 32.5758 64.2519 32.3312 64.8868 31.9234L64.9265 31.8827C64.9265 31.8827 64.9265 31.8827 64.9662 31.8827C65.0059 32.4942 65.0852 33.065 65.1249 33.6766C65.0059 33.7174 64.8868 33.7581 64.7678 33.7581C64.2122 33.8805 63.6566 33.962 63.101 34.0028C62.5058 34.0435 61.9502 34.0028 61.3946 33.7989C60.7993 33.5951 60.2834 33.2281 59.8866 32.7389C59.4104 32.1273 59.0929 31.4342 58.9342 30.7003C58.7754 30.1295 58.6961 29.518 58.6564 28.9472C58.6564 28.8249 58.6564 28.6618 58.6167 28.5395V27.6017C58.6167 27.561 58.6167 27.561 58.6167 27.5202C58.6564 27.1125 58.6564 26.7455 58.7358 26.3378C58.8151 25.7263 58.9342 25.1555 59.1723 24.5847C59.4104 23.9323 59.8072 23.3616 60.3231 22.9131C60.839 22.4646 61.4343 22.22 62.1089 22.1384C62.228 22.1384 62.347 22.0977 62.5058 22.0977H63.101V22.1792Z" fill="#6E5D56"/>
<path d="M74.8868 22.4648C74.8868 22.5872 74.8868 22.7095 74.8868 22.8318C74.8868 22.8726 74.8868 22.9133 74.8471 22.9133C74.4899 23.0356 74.2121 23.2803 73.974 23.6064C73.4581 24.218 72.9819 24.8703 72.466 25.4819C72.2279 25.8081 71.9898 26.0935 71.7517 26.4196C71.7517 26.4604 71.712 26.5012 71.7517 26.5012C72.3866 28.0912 73.0216 29.6405 73.6565 31.2306C73.8946 31.7606 74.1328 32.2906 74.4502 32.7799C74.609 33.0245 74.7677 33.2284 75.0058 33.3507C75.1249 33.4322 75.1645 33.5138 75.1645 33.6361C75.1645 33.7176 75.1645 33.7584 75.1645 33.8399H75.0852C74.2915 33.8399 73.4978 33.8399 72.7438 33.8399C72.6644 33.8399 72.6644 33.8399 72.6248 33.7584C71.9104 31.9237 71.1564 30.1298 70.4421 28.2951C70.4421 28.2543 70.4024 28.2543 70.4024 28.2136C70.3231 28.3359 70.2437 28.4174 70.1246 28.5397C69.8865 28.8251 69.6881 29.1105 69.45 29.3551C69.4103 29.3959 69.4103 29.4367 69.4103 29.4367C69.4103 30.6598 69.4103 31.8829 69.4103 33.0653C69.4103 33.1876 69.45 33.2691 69.6087 33.2691C69.7675 33.2691 69.9659 33.2691 70.1246 33.2691V33.7992H66.7515V33.3099C66.9102 33.3099 67.0689 33.3099 67.2277 33.3099C67.3864 33.3099 67.4261 33.2692 67.4261 33.1061C67.4261 29.8036 67.4261 26.5012 67.4261 23.2395C67.4261 23.0764 67.3864 23.0356 67.2277 23.0356C67.0689 23.0356 66.9102 23.0356 66.7515 23.0356V22.5464H70.0453V23.0356C69.8865 23.0356 69.7278 23.0356 69.5691 23.0356C69.4103 23.0356 69.3706 23.0764 69.3706 23.2395C69.3706 24.5849 69.3706 25.9304 69.3706 27.2758C69.3706 27.3166 69.3706 27.3166 69.3706 27.3574C69.3706 27.3574 69.4103 27.3574 69.4103 27.3166C70.3231 25.9711 71.2358 24.6665 72.1485 23.321C72.1882 23.2395 72.2279 23.1579 72.1882 23.0764C72.1485 22.9949 72.0692 22.9949 71.9898 22.9949C71.8311 22.9949 71.6723 22.9949 71.5136 22.9949V22.5056H74.8868V22.4648Z" fill="#6E5D56"/>
<path d="M84.4498 22.4648C84.4498 26.0119 84.4498 29.559 84.4498 33.0653C84.4498 33.2284 84.4895 33.2691 84.6482 33.2691C84.807 33.2691 84.9657 33.2691 85.1244 33.2691V33.7584H81.7513V33.2691C81.7909 33.2691 81.7909 33.2691 81.8306 33.2691C81.9894 33.2691 82.1481 33.2691 82.2672 33.2691C82.3862 33.2691 82.4259 33.1876 82.4259 33.1061V33.0653V26.3381V26.2565C82.3465 26.4196 82.3068 26.5419 82.2275 26.705C81.2354 29.029 80.2036 31.3937 79.2115 33.7176C79.2115 33.7584 79.1718 33.7992 79.1321 33.7992C78.5368 33.7992 77.9416 33.7992 77.3066 33.7992H77.2669V33.6769V23.2395C77.2669 23.1987 77.2669 23.1987 77.2669 23.158C77.2669 22.9949 77.2272 22.9541 77.0685 22.9541C76.9098 22.9541 76.751 22.9541 76.5923 22.9541V22.4648H79.8861V22.9541C79.7274 22.9541 79.5686 22.9541 79.4099 22.9541C79.2511 22.9541 79.2115 22.9949 79.2115 23.158C79.2115 25.4004 79.2115 27.6428 79.2115 29.8852C79.2115 29.9259 79.2115 29.9259 79.2115 29.9667C80.2829 27.4797 81.3941 24.9519 82.4656 22.4648H84.4498Z" fill="#6E5D56"/>
<path d="M93.3399 22.4648V24.3403C93.1018 24.2995 92.8637 24.218 92.6256 24.218C92.3081 24.1772 91.9907 24.1365 91.6732 24.0957C90.9589 24.0141 90.2843 24.0141 89.5699 24.0141C89.4112 24.0141 89.3318 24.0549 89.3318 24.2588C89.3318 25.2373 89.3318 26.2158 89.3318 27.1943V27.2758H92.4272V28.7843H89.3318V28.8659C89.3318 29.9259 89.3318 31.0267 89.3318 32.0868C89.3318 32.2499 89.3715 32.3314 89.5699 32.3314C90.0461 32.3314 90.562 32.3314 91.0383 32.3314C91.4351 32.2906 91.8716 32.2499 92.2685 32.2091C92.6653 32.1683 93.0225 32.046 93.3796 31.9645C93.5384 31.9237 93.6971 31.8829 93.8558 31.8014C93.7765 32.4945 93.6971 33.1876 93.6177 33.8399H86.6333V33.3507C86.673 33.3507 86.673 33.3507 86.7127 33.3507C86.8714 33.3507 87.0301 33.3507 87.1492 33.3507C87.2682 33.3507 87.3476 33.3099 87.3476 33.1468V33.1061V23.1987V23.158C87.3476 23.0356 87.3079 22.9541 87.1492 22.9541C86.9905 22.9541 86.8317 22.9541 86.673 22.9541V22.4648H93.3399Z" fill="#6E5D56"/>
<path d="M107.511 22.6211V23.1103C107.353 23.1103 107.233 23.1103 107.075 23.1103C106.916 23.1103 106.876 23.1511 106.876 23.3142C106.876 26.6166 106.876 29.8783 106.876 33.1808C106.876 33.3439 106.916 33.4254 107.075 33.4254C107.233 33.4254 107.392 33.4254 107.551 33.4254V33.9146H104.217V33.4662H104.297C104.456 33.4662 104.575 33.4662 104.733 33.4662C104.852 33.4662 104.892 33.4254 104.892 33.3031V33.2623C104.892 30.3268 104.892 27.3913 104.892 24.4558C104.892 24.2519 104.852 24.2112 104.654 24.2112C103.741 24.2112 102.829 24.2112 101.876 24.2112C101.717 24.2112 101.638 24.2519 101.638 24.4558C101.638 27.3913 101.638 30.3268 101.638 33.2623C101.638 33.4662 101.678 33.5069 101.876 33.5069C102.035 33.5069 102.194 33.5069 102.313 33.5069V33.9962H98.9395V33.4662C99.0982 33.4662 99.2569 33.4662 99.4157 33.4662C99.5744 33.4662 99.6141 33.4254 99.6141 33.2623C99.6141 29.9599 99.6141 26.6574 99.6141 23.3957C99.6141 23.2327 99.5744 23.1919 99.4157 23.1919C99.2569 23.1919 99.0982 23.1919 98.9395 23.1919V22.7026H107.511V22.6211Z" fill="#6E5D56"/>
<path d="M116.282 22.6211V24.4966C116.044 24.4558 115.806 24.3742 115.568 24.3742C115.25 24.3335 114.933 24.2927 114.615 24.2519C113.901 24.1704 113.226 24.1704 112.512 24.1704C112.353 24.1704 112.274 24.2112 112.274 24.415C112.274 25.3935 112.274 26.372 112.274 27.3505V27.4321H115.369V28.9406H112.274V29.0221C112.274 30.0822 112.274 31.183 112.274 32.243C112.274 32.4061 112.313 32.4877 112.512 32.4877C112.988 32.4877 113.504 32.4877 113.98 32.4877C114.377 32.4469 114.814 32.4061 115.21 32.3653C115.607 32.3246 115.964 32.2023 116.322 32.1207C116.48 32.0799 116.639 32.0392 116.798 31.9576C116.718 32.6507 116.639 33.3438 116.56 34.0369H109.575V33.4662C109.734 33.4662 109.893 33.4662 110.051 33.4662C110.21 33.4662 110.25 33.4254 110.25 33.2623C110.25 29.9599 110.25 26.6574 110.25 23.3957C110.25 23.2327 110.21 23.1919 110.051 23.1919C109.893 23.1919 109.734 23.1919 109.575 23.1919V22.7026H116.282V22.6211Z" fill="#6E5D56"/>
<path d="M126.717 22.6211C126.717 22.7434 126.717 22.8657 126.717 22.988C126.717 23.0288 126.717 23.0696 126.678 23.0696C126.32 23.1919 126.043 23.4365 125.805 23.7627C125.289 24.3742 124.812 25.0266 124.297 25.6381C124.058 25.9643 123.82 26.2497 123.582 26.5759C123.582 26.6166 123.543 26.6574 123.582 26.6574C124.217 28.2475 124.852 29.7968 125.487 31.3868C125.725 31.9169 125.963 32.4469 126.281 32.9361C126.44 33.1808 126.598 33.3846 126.836 33.5069C126.955 33.5885 126.995 33.67 126.995 33.7923C126.995 33.8739 126.995 33.9146 126.995 33.9962H126.916C126.122 33.9962 125.328 33.9962 124.574 33.9962C124.495 33.9962 124.495 33.9962 124.455 33.9146C123.741 32.08 122.987 30.286 122.273 28.4513C122.273 28.4106 122.233 28.4106 122.233 28.3698C122.154 28.4921 122.074 28.5737 121.955 28.696C121.717 28.9814 121.519 29.2668 121.281 29.5114C121.241 29.5522 121.241 29.5929 121.241 29.5929C121.241 30.8161 121.241 32.0392 121.241 33.2215C121.241 33.3438 121.281 33.4254 121.439 33.4254C121.598 33.4254 121.796 33.4254 121.955 33.4254V33.9146H118.582V33.4662C118.741 33.4662 118.9 33.4662 119.058 33.4662C119.217 33.4662 119.257 33.4254 119.257 33.2623C119.257 29.9599 119.257 26.6574 119.257 23.3957C119.257 23.2327 119.217 23.1919 119.058 23.1919C118.9 23.1919 118.741 23.1919 118.582 23.1919V22.7026H121.876V23.1919C121.717 23.1919 121.558 23.1919 121.4 23.1919C121.241 23.1919 121.201 23.2327 121.201 23.3957C121.201 24.7412 121.201 26.0866 121.201 27.4321C121.201 27.4728 121.201 27.4728 121.201 27.5136C121.201 27.5136 121.241 27.5136 121.241 27.4728C122.154 26.1274 123.066 24.8227 123.979 23.4773C124.019 23.3957 124.058 23.3142 124.019 23.2327C123.979 23.1511 123.9 23.1511 123.82 23.1511C123.662 23.1511 123.503 23.1511 123.344 23.1511V22.6619H126.717V22.6211Z" fill="#6E5D56"/>
<path d="M137.234 33.629C137.234 33.5882 137.234 33.5882 137.195 33.5475C136.996 33.3844 136.877 33.1805 136.798 32.9767C136.52 32.4466 136.321 31.8759 136.163 31.3051C135.806 30.0819 135.448 28.8588 135.091 27.6357C134.615 25.9641 134.139 24.2925 133.663 22.5801H131.678C131.282 24.0071 130.885 25.434 130.488 26.861C130.21 27.9211 129.893 28.9403 129.615 30.0004C129.377 30.8566 129.099 31.7128 128.781 32.5282C128.662 32.8136 128.543 33.099 128.305 33.3436C128.266 33.4251 128.186 33.4659 128.146 33.5067V33.8736H131.004V33.4659C130.845 33.4659 130.647 33.4659 130.488 33.4659C130.369 33.4659 130.289 33.3844 130.289 33.2621C130.289 33.2213 130.289 33.1805 130.329 33.1805C130.528 32.3651 130.726 31.5905 130.924 30.775C130.964 30.612 131.004 30.4896 131.043 30.3673H133.901C134.218 31.5905 134.536 32.8136 134.813 33.9959H137.314C137.234 33.8329 137.274 33.7513 137.234 33.629ZM131.361 28.8996C131.718 27.5134 132.036 26.1679 132.393 24.7817H132.432C132.79 26.1271 133.107 27.5134 133.464 28.8996H131.361Z" fill="#6E5D56"/>
<path d="M142.394 22.6211C142.513 22.6211 142.632 22.6619 142.751 22.6619C143.465 22.7434 144.1 22.9065 144.695 23.3142C145.211 23.6811 145.568 24.1296 145.806 24.7412C145.965 25.2304 146.045 25.6789 146.005 26.2089C145.965 26.739 145.846 27.2282 145.568 27.6767C145.33 28.0436 145.052 28.3698 144.695 28.6144C144.298 28.8998 143.822 29.1037 143.346 29.226C142.909 29.3483 142.433 29.3891 141.997 29.3891C141.719 29.3891 141.441 29.3891 141.163 29.3891V29.4706C141.163 30.7345 141.163 31.9984 141.163 33.2215C141.163 33.3846 141.203 33.4254 141.362 33.4254C141.56 33.4254 141.759 33.4254 141.957 33.4254V33.9147H138.465V33.4662C138.624 33.4662 138.782 33.4662 138.941 33.4662C139.1 33.4662 139.139 33.4254 139.139 33.2623C139.139 29.9599 139.139 26.6574 139.139 23.3957C139.139 23.2327 139.1 23.1919 138.941 23.1919C138.782 23.1919 138.624 23.1919 138.465 23.1919V22.7026H142.394V22.6211ZM141.163 27.8398C141.441 27.8398 141.719 27.8398 141.997 27.8398C142.314 27.8398 142.671 27.799 142.989 27.6767C143.465 27.4728 143.783 27.1874 143.941 26.6982C144.06 26.3313 144.06 26.0051 144.021 25.6381C143.941 25.1489 143.703 24.782 143.306 24.4966C142.989 24.2927 142.592 24.2112 142.235 24.1704C141.957 24.1704 141.679 24.1704 141.401 24.1704C141.243 24.1704 141.203 24.2112 141.203 24.415C141.203 25.5566 141.203 26.6574 141.203 27.799V27.8398H141.163Z" fill="#6E5D56"/>
<path d="M165.609 22.6211C165.609 26.1682 165.609 29.7152 165.609 33.2215C165.609 33.3846 165.649 33.4254 165.807 33.4254C165.966 33.4254 166.125 33.4254 166.284 33.4254V33.9146H162.91V33.4661C163.029 33.4661 163.149 33.4661 163.268 33.4661C163.347 33.4661 163.387 33.4661 163.466 33.4661C163.585 33.4661 163.625 33.3846 163.625 33.3031V33.2623C163.625 31.0199 163.625 28.7775 163.625 26.5351V26.4536C163.625 26.4943 163.585 26.4943 163.585 26.4943C162.553 28.8998 161.521 31.3053 160.45 33.7108C160.41 33.7923 160.41 33.9146 160.331 33.9554C160.252 33.9962 160.133 33.9554 160.053 33.9554C159.537 33.9554 159.021 33.9554 158.505 33.9554H158.426V33.8739V23.4365C158.426 23.3957 158.426 23.3957 158.426 23.355C158.426 23.2327 158.386 23.1511 158.228 23.1511C158.069 23.1511 157.91 23.1511 157.751 23.1511V22.6619H161.045V23.1511C160.887 23.1511 160.728 23.1511 160.569 23.1511C160.41 23.1511 160.371 23.1919 160.371 23.355C160.371 25.5974 160.371 27.8398 160.371 30.0822C160.371 30.1229 160.371 30.1229 160.371 30.1637C161.442 27.6767 162.553 25.1489 163.625 22.6619H165.609V22.6211Z" fill="#6E5D56"/>
<path d="M155.688 22.6211V23.1103C155.529 23.1103 155.41 23.1103 155.251 23.1103C155.093 23.1103 155.053 23.1511 155.053 23.3142C155.053 26.6166 155.053 29.8783 155.053 33.1808C155.053 33.3439 155.093 33.4254 155.251 33.4254C155.41 33.4254 155.569 33.4254 155.728 33.4254V33.9146H152.394V33.4662C152.434 33.4662 152.434 33.4662 152.473 33.4662C152.632 33.4662 152.791 33.4662 152.91 33.4662C153.029 33.4662 153.069 33.4254 153.069 33.3031C153.069 33.2623 153.069 33.2623 153.069 33.2215V29.0221V28.9406H149.854V29.0221C149.854 30.4491 149.854 31.8353 149.854 33.2623C149.854 33.4254 149.894 33.4662 150.053 33.4662C150.211 33.4662 150.37 33.4662 150.529 33.4662V33.9554H147.156V33.4662C147.314 33.4662 147.473 33.4662 147.632 33.4662C147.791 33.4662 147.83 33.4254 147.83 33.2623C147.83 29.9599 147.83 26.6574 147.83 23.3957C147.83 23.2327 147.791 23.1919 147.632 23.1919C147.473 23.1919 147.314 23.1919 147.156 23.1919V22.7026H150.45V23.1919C150.291 23.1919 150.132 23.1919 149.973 23.1919C149.815 23.1919 149.775 23.2327 149.775 23.3957C149.775 24.7004 149.775 26.0051 149.775 27.3098V27.3913H152.989V27.3505C152.989 26.0459 152.989 24.7004 152.989 23.3957C152.989 23.2734 152.95 23.1919 152.791 23.1919C152.632 23.1919 152.473 23.1919 152.315 23.1919V22.7026H155.688V22.6211Z" fill="#6E5D56"/>
</svg>
